<svg aria-hidden="true" style="position: absolute; width: 0; height: 0; overflow: hidden;" version="1.1" xmlns="http://www.w3.org/2000/svg" xmlns:xlink="http://www.w3.org/1999/xlink">
<defs>
<symbol id="icon-instagram" viewBox="0 0 32 32">
<path fill="#fff" style="fill: var(--color1, #fff)" d="M16 0c-4.347 0-4.888 0.019-6.597 0.099-5.813 0.267-9.040 3.491-9.307 9.304-0.077 1.709-0.096 2.253-0.096 6.597 0 4.347 0.019 4.891 0.096 6.597 0.267 5.811 3.493 9.040 9.307 9.307 1.709 0.077 2.251 0.096 6.597 0.096s4.891-0.019 6.6-0.096c5.803-0.267 9.043-3.491 9.304-9.307 0.077-1.707 0.096-2.251 0.096-6.597 0-4.344-0.019-4.888-0.096-6.597-0.261-5.805-3.491-9.040-9.304-9.304-1.709-0.080-2.253-0.099-6.6-0.099zM16 2.885c4.272 0 4.779 0.016 6.467 0.093 4.339 0.197 6.36 2.253 6.56 6.557 0.075 1.688 0.091 2.192 0.091 6.464s-0.016 4.779-0.091 6.464c-0.2 4.301-2.219 6.363-6.56 6.56-1.688 0.075-2.192 0.093-6.467 0.093-4.272 0-4.779-0.016-6.464-0.093-4.347-0.2-6.36-2.264-6.56-6.56-0.075-1.685-0.093-2.192-0.093-6.464s0.019-4.779 0.093-6.464c0.197-4.307 2.219-6.363 6.56-6.56 1.685-0.077 2.192-0.091 6.464-0.091zM7.784 16c0-4.539 3.68-8.216 8.216-8.216s8.216 3.68 8.216 8.216c0 4.539-3.68 8.216-8.216 8.216s-8.216-3.677-8.216-8.216zM16 21.333c-2.947 0-5.333-2.387-5.333-5.333 0-2.944 2.387-5.333 5.333-5.333 2.944 0 5.336 2.387 5.336 5.333s-2.392 5.333-5.336 5.333zM22.619 7.461c0-1.061 0.861-1.92 1.92-1.92 1.064 0 1.923 0.859 1.923 1.92s-0.861 1.92-1.923 1.92c-1.061 0-1.92-0.861-1.92-1.92z"></path>
</symbol>
<symbol id="icon-twitter" viewBox="0 0 37 32">
<path fill="#fff" style="fill: var(--color1, #fff)" d="M36.571 3.52c-1.344 0.597-2.792 1-4.309 1.182 1.551-0.929 2.737-2.398 3.301-4.151-1.451 0.859-3.057 1.484-4.767 1.819-1.365-1.46-3.319-2.371-5.473-2.371-4.846 0-8.405 4.52-7.311 9.213-6.232-0.314-11.764-3.301-15.464-7.838-1.966 3.371-1.018 7.784 2.322 10.018-1.228-0.040-2.383-0.378-3.395-0.939-0.082 3.474 2.411 6.726 6.019 7.451-1.054 0.287-2.213 0.354-3.389 0.128 0.954 2.981 3.73 5.147 7.010 5.208-3.16 2.475-7.131 3.581-11.115 3.112 3.322 2.13 7.262 3.371 11.499 3.371 13.934 0 21.803-11.767 21.327-22.321 1.469-1.054 2.74-2.377 3.746-3.883z"></path>
</symbol>
<symbol id="icon-facebook" viewBox="0 0 20 32">
<path fill="#fff" style="fill: var(--color1, #fff)" d="M5.333 10.667h-5.333v5.333h5.333v16h8v-16h4.853l0.48-5.333h-5.333v-2.221c0-1.275 0.256-1.779 1.488-1.779h3.845v-6.667h-6.411c-4.795 0-6.923 2.112-6.923 6.155v4.512z"></path>
</symbol>
<symbol id="icon-map_pin" viewBox="0 0 27 32">
<path fill="#f3933d" style="fill: var(--color2, #f3933d)" d="M13.333 26c6.996 0 12.667-5.671 12.667-12.667s-5.671-12.667-12.667-12.667c-6.996 0-12.667 5.671-12.667 12.667s5.671 12.667 12.667 12.667z"></path>
<path fill="#fff" style="fill: var(--color1, #fff)" d="M19.323 11.647c-0.025-0.077-0.093-0.133-0.174-0.145l-3.886-0.56-1.738-3.49c-0.036-0.073-0.111-0.119-0.192-0.119s-0.157 0.046-0.192 0.119l-1.738 3.49-3.886 0.56c-0.081 0.012-0.148 0.068-0.174 0.145s-0.004 0.162 0.054 0.218l2.812 2.717-0.664 3.836c-0.014 0.080 0.019 0.161 0.085 0.208s0.154 0.054 0.226 0.016l3.476-1.811 3.475 1.811c0.031 0.016 0.066 0.024 0.1 0.024 0.044 0 0.089-0.014 0.126-0.041 0.066-0.048 0.099-0.128 0.085-0.208l-0.664-3.836 2.812-2.717c0.058-0.057 0.080-0.141 0.054-0.218z"></path>
<path fill="#fff" style="fill: var(--color1, #fff)" d="M0 13.087c0-7.227 5.971-13.087 13.333-13.087s13.333 5.86 13.333 13.087c0 7.26-5.707 12.247-13.088 18.699-0.082 0.071-0.163 0.143-0.245 0.214-0.082-0.072-0.164-0.143-0.245-0.214-7.382-6.452-13.088-11.439-13.088-18.699zM2.667 13.333c0 5.891 4.775 10.667 10.667 10.667s10.667-4.776 10.667-10.667c0-5.891-4.775-10.667-10.667-10.667s-10.667 4.776-10.667 10.667z"></path>
</symbol>
<symbol id="icon-oval" viewBox="0 0 32 32">
<path fill="#f3f3f3" style="fill: var(--color3, #f3f3f3)" d="M16 32c8.837 0 16-7.163 16-16s-7.163-16-16-16c-8.837 0-16 7.163-16 16s7.163 16 16 16z"></path>
</symbol>
<symbol id="icon-wineglass" viewBox="0 0 30 32">
<path fill="#ef633e" style="fill: var(--color4, #ef633e)" d="M17.473 5.333c0.384-3.045 2.956-5.328 6.007-5.333 3.346 0 6.059 2.729 6.059 6.095s-2.713 6.095-6.059 6.095c-1.232 0.001-2.433-0.38-3.442-1.091l-7.161 8.034v11.342h4.544v1.524h-10.603v-1.524h4.544v-11.342l-11.168-12.53c-0.125-0.14-0.194-0.321-0.194-0.51 0-0.421 0.34-0.762 0.758-0.761h16.715zM5.817 10.631l6.301 7.070 6.3-7.070h-12.601zM19.693 9.197v-0.090h-15.233l-2.005-2.25h19.327l-2.089 2.34zM21.056 9.958c0.724 0.464 1.565 0.71 2.424 0.709 2.217-0 4.111-1.61 4.48-3.809 0.418-2.489-1.249-4.849-3.723-5.269s-4.82 1.256-5.238 3.746h4.481c0.188-0.001 0.37 0.069 0.51 0.196 0.311 0.282 0.335 0.764 0.055 1.076l-2.989 3.352z"></path>
</symbol>
<symbol id="icon-cake" viewBox="0 0 27 32">
<path fill="#eda42d" style="fill: var(--color5, #eda42d)" d="M27.077 16c0 2.225-1.329 4.147-3.242 5.028l-1.865 7.82c-0.443 1.856-2.095 3.152-4.019 3.152h-8.826c-1.923 0-3.576-1.296-4.019-3.152l-1.865-7.82c-1.912-0.881-3.242-2.803-3.242-5.028 0-1.398 0.527-2.733 1.484-3.759 0.755-0.809 1.723-1.37 2.786-1.625 0.276-2.636 2.529-4.698 5.259-4.698 0.16 0 0.319 0.008 0.478 0.022 0.484-1.087 1.463-1.909 2.652-2.185 0.068-0.47 0.194-1.001 0.422-1.518 0.496-1.124 1.347-1.885 2.461-2.201 0.502-0.142 1.025 0.146 1.169 0.644s-0.147 1.017-0.649 1.159c-0.479 0.136-1.24 0.571-1.498 1.953 1.133 0.31 2.059 1.12 2.519 2.176 0.236-0.032 0.474-0.049 0.714-0.049 2.753 0 5.022 2.098 5.265 4.766 2.337 0.681 4.014 2.839 4.014 5.316zM13.538 5.529c-1.086 0-1.969 0.876-1.969 1.952s0.883 1.952 1.969 1.952c1.086 0 1.969-0.876 1.969-1.952s-0.883-1.952-1.969-1.952zM5.305 21.533l1.642 6.883c0.24 1.006 1.136 1.709 2.178 1.709h0.068l-2.096-8.79c-0.484 0.134-0.991 0.205-1.51 0.205-0.094 0-0.188-0.002-0.282-0.007zM14.476 30.125h1.465l2.296-9.626c-0.273-0.194-0.529-0.412-0.764-0.652-0.806 0.825-1.856 1.387-2.997 1.599v8.679zM11.136 30.125h1.448v-8.652c-1.165-0.18-2.233-0.717-3.064-1.537-0.212 0.209-0.439 0.398-0.679 0.569l2.294 9.62zM20.13 28.416l1.642-6.883c-0.093 0.005-0.187 0.007-0.282 0.007-0.516 0-1.024-0.072-1.509-0.208l-2.097 8.793h0.068c1.043 0 1.938-0.703 2.178-1.709zM18.291 17.834c0.66 1.129 1.886 1.831 3.199 1.831 2.038 0 3.696-1.644 3.696-3.665 0-1.821-1.37-3.381-3.187-3.629-0.491-0.067-0.846-0.499-0.815-0.989 0.006-0.087 0.008-0.157 0.008-0.221 0-1.857-1.523-3.368-3.396-3.368-0.139 0-0.278 0.009-0.415 0.025-0.173 1.953-1.83 3.49-3.844 3.49-2.020 0-3.682-1.547-3.845-3.51-0.055-0.003-0.11-0.005-0.165-0.005-1.873 0-3.396 1.511-3.396 3.368 0 0.059 0.002 0.125 0.007 0.199 0.030 0.508-0.354 0.946-0.865 0.989-0.919 0.076-1.772 0.49-2.402 1.165-0.633 0.678-0.981 1.561-0.981 2.486 0 2.021 1.658 3.665 3.696 3.665 0.6 0 1.176-0.141 1.689-0.402 0.030-0.018 0.062-0.035 0.094-0.050 0.541-0.296 1.008-0.728 1.35-1.269 0.173-0.273 0.475-0.439 0.801-0.439s0.628 0.166 0.801 0.439c0.682 1.078 1.853 1.722 3.133 1.722 1.313 0 2.539-0.702 3.199-1.831 0.169-0.289 0.481-0.467 0.818-0.467s0.649 0.178 0.818 0.467z"></path>
</symbol>
<symbol id="icon-dish" viewBox="0 0 32 32">
<path fill="#5dc4b8" style="fill: var(--color6, #5dc4b8)" d="M32 14.062c0-0.518-0.42-0.937-0.937-0.937h-2.848c-0.457-5.974-5.24-10.757-11.214-11.213v-0.974c0-0.518-0.42-0.937-0.937-0.937s-0.938 0.42-0.938 0.937v0.97c-4.24 0.285-6.876 2.47-8.368 4.324-1.569 1.949-2.612 4.515-2.836 6.892h-2.983c-0.518 0-0.938 0.42-0.938 0.937 0 1.253 0.515 2.435 1.45 3.329 0.916 0.876 2.11 1.358 3.362 1.358h4.709c-0.828 0.427-1.742 0.934-2.752 1.523-1.544 0.901-2.075 2.174-2.69 3.648l-0 0c-0.418 1.003-0.892 2.139-1.793 3.489-0.469 0.704 0.108 1.325 0.643 1.83 0.685 0.646 1.859 1.594 2.601 2.157 0.019 0.014 0.038 0.029 0.057 0.043 0.015 0.011 0.030 0.023 0.044 0.034l0.002 0.002 0 0c0.397 0.303 0.686 0.524 1.054 0.524 0.276 0 0.512-0.125 0.662-0.276 1.097-1.096 2.505-1.725 3.864-1.725h3.896c1.858 0 3.636-0.792 4.876-2.17l7.484-8.235c0.219-0.241 0.289-0.565 0.214-0.86 2.411-0.19 4.316-2.212 4.316-4.671zM16.064 3.751c5.369 0 9.792 4.126 10.268 9.374h-20.529c0.445-4.085 3.738-9.374 10.261-9.374zM21.299 18.749h-4.34c0.072 0.256 0.084 0.49 0.068 0.687-0.095 1.191-1.228 2.146-2.695 3.062h3.217l3.75-3.75zM19.983 25.044l-1.388 1.527c-0.888 0.987-2.158 1.552-3.485 1.552h-3.896c-1.612 0-3.253 0.627-4.604 1.742-0.688-0.526-1.82-1.448-2.397-1.988 0.771-1.256 1.223-2.341 1.596-3.235 0.564-1.351 0.904-2.167 1.905-2.751 1.742-1.016 3.152-1.757 4.311-2.266 2.109-0.926 2.731-0.779 2.803-0.756 0.235 0.191 0.335 0.347 0.329 0.418-0.003 0.035-0.053 0.362-0.931 1.021-0.695 0.521-1.646 1.060-2.602 1.602v0c-0.423 0.24-0.848 0.48-1.251 0.72-0.363 0.216-0.537 0.647-0.425 1.054s0.482 0.689 0.904 0.689h7.086c0.249 0 0.487-0.099 0.663-0.275l4.474-4.474c0.852-0.852 1.558-1.040 2.346-0.564l-5.437 5.983zM4.813 16.874h22.5c1.222 0 2.265-0.796 2.652-1.887h-27.915c0.413 1.080 1.512 1.887 2.763 1.887z"></path>
</symbol>
<symbol id="icon-grape" viewBox="0 0 26 32">
<path fill="#ef633e" style="fill: var(--color4, #ef633e)" d="M23.069 10.378c1.87 0 3.392 1.527 3.392 3.405 0 1.694-1.239 3.102-2.855 3.361 0.245 0.471 0.385 1.005 0.385 1.573 0 1.692-1.236 3.099-2.849 3.36 0.249 0.474 0.391 1.013 0.391 1.584 0 1.69-1.234 3.096-2.844 3.359 0.246 0.471 0.386 1.007 0.386 1.575 0 1.877-1.522 3.404-3.392 3.404-0.967 0-1.84-0.409-2.458-1.062-0.619 0.653-1.491 1.062-2.458 1.062-1.871 0-3.392-1.527-3.392-3.404 0-0.568 0.14-1.103 0.386-1.575-1.611-0.264-2.844-1.669-2.844-3.359 0-0.572 0.142-1.111 0.391-1.584-1.613-0.262-2.849-1.669-2.849-3.36 0-0.568 0.14-1.103 0.386-1.575-1.611-0.264-2.844-1.669-2.844-3.359 0-1.877 1.522-3.405 3.392-3.405 0.97 0 1.845 0.411 2.464 1.068 0.619-0.657 1.494-1.068 2.464-1.068 0.967 0 1.84 0.409 2.458 1.062 0.408-0.431 0.928-0.756 1.512-0.926v-2.352c-0.352 0.14-0.725 0.21-1.098 0.21-0.76 0-1.519-0.29-2.097-0.87-1.704-1.71-2.663-5.432-2.767-5.851l-0.375-1.512 1.507 0.376c0.348 0.087 2.992 0.773 4.847 1.993 0.152-1.408 1.343-2.508 2.786-2.508h4.369v1.875h-4.369c-0.515 0-0.934 0.421-0.934 0.938v7.695c0.594 0.169 1.122 0.496 1.536 0.933 0.618-0.653 1.491-1.062 2.458-1.062s1.84 0.409 2.458 1.062c0.619-0.653 1.491-1.062 2.458-1.062zM11.701 23.662c0 0.843 0.684 1.53 1.524 1.53s1.524-0.686 1.524-1.53c0-0.843-0.684-1.53-1.524-1.53s-1.524 0.686-1.524 1.53zM10.767 17.187c-0.84 0-1.524 0.686-1.524 1.529s0.684 1.53 1.524 1.53c0.84 0 1.524-0.686 1.524-1.53s-0.684-1.529-1.524-1.529zM14.159 18.717c0 0.843 0.684 1.53 1.524 1.53s1.524-0.686 1.524-1.53-0.684-1.529-1.524-1.529c-0.84 0-1.524 0.686-1.524 1.529zM18.153 12.253c-0.84 0-1.524 0.686-1.524 1.53s0.684 1.529 1.524 1.529c0.84 0 1.524-0.686 1.524-1.529s-0.684-1.53-1.524-1.53zM10.416 6.176c0.428 0.43 1.125 0.429 1.553 0s0.428-1.129 0-1.558c-0.725-0.727-2.137-1.354-3.323-1.778 0.422 1.192 1.048 2.61 1.771 3.336zM13.237 12.253c-0.84 0-1.524 0.686-1.524 1.53s0.684 1.529 1.524 1.529c0.84 0 1.524-0.686 1.524-1.529s-0.684-1.53-1.524-1.53zM9.845 13.783c0-0.843-0.684-1.53-1.524-1.53s-1.524 0.686-1.524 1.53 0.684 1.529 1.524 1.529c0.84 0 1.524-0.686 1.524-1.529zM1.868 13.783c0 0.843 0.684 1.529 1.524 1.529s1.524-0.686 1.524-1.529c0-0.843-0.684-1.53-1.524-1.53s-1.524 0.686-1.524 1.53zM5.85 17.187c-0.84 0-1.524 0.686-1.524 1.529s0.684 1.53 1.524 1.53c0.84 0 1.524-0.686 1.524-1.53s-0.684-1.529-1.524-1.529zM6.784 23.662c0 0.843 0.684 1.53 1.524 1.53s1.524-0.686 1.524-1.53c0-0.843-0.684-1.53-1.524-1.53s-1.524 0.686-1.524 1.53zM9.243 28.596c0 0.843 0.684 1.529 1.524 1.529s1.524-0.686 1.524-1.529-0.684-1.529-1.524-1.529c-0.84 0-1.524 0.686-1.524 1.529zM15.683 30.125c0.84 0 1.524-0.686 1.524-1.529s-0.684-1.529-1.524-1.529c-0.84 0-1.524 0.686-1.524 1.529s0.684 1.529 1.524 1.529zM16.617 23.662c0 0.843 0.684 1.53 1.524 1.53s1.524-0.686 1.524-1.53c0-0.843-0.684-1.53-1.524-1.53s-1.524 0.686-1.524 1.53zM20.599 20.246c0.84 0 1.524-0.686 1.524-1.53s-0.684-1.529-1.524-1.529c-0.84 0-1.524 0.686-1.524 1.529s0.684 1.53 1.524 1.53zM21.545 13.783c0 0.843 0.684 1.529 1.524 1.529s1.524-0.686 1.524-1.529-0.684-1.53-1.524-1.53c-0.84 0-1.524 0.686-1.524 1.53z"></path>
</symbol>
<symbol id="icon-star" viewBox="0 0 34 32">
<path fill="#dcdcdc" style="fill: var(--color7, #dcdcdc)" d="M33.852 12.179c-0.072-0.218-0.261-0.376-0.49-0.409l-10.971-1.58-4.906-9.854c-0.102-0.206-0.313-0.335-0.543-0.335s-0.442 0.13-0.543 0.335l-4.907 9.854-10.971 1.58c-0.229 0.033-0.418 0.191-0.49 0.409-0.071 0.217-0.012 0.456 0.153 0.616l7.939 7.67-1.875 10.831c-0.039 0.226 0.055 0.453 0.241 0.588 0.187 0.136 0.435 0.153 0.639 0.046l9.814-5.113 9.813 5.113c0.088 0.046 0.186 0.069 0.283 0.069 0.126 0 0.251-0.038 0.357-0.115 0.187-0.135 0.28-0.362 0.241-0.588l-1.874-10.831 7.939-7.671c0.165-0.161 0.225-0.399 0.153-0.616z"></path>
</symbol>
<symbol id="icon-toque" viewBox="0 0 32 32">
<path fill="#eda42d" style="fill: var(--color5, #eda42d)" d="M22.62 3.056c-1.602-1.867-3.973-3.056-6.62-3.056s-5.019 1.189-6.62 3.056c-0.478-0.089-0.939-0.147-1.38-0.147-4.411 0-8 3.589-8 8 0 3.023 1.705 5.771 4.381 7.129l-0.014 10.991c-0.001 0.793 0.308 1.539 0.868 2.1s1.306 0.871 2.099 0.871h17.335c1.636 0 2.967-1.331 2.967-2.967v-11.005c2.666-1.362 4.364-4.106 4.364-7.119-0-4.411-3.589-8-8-8-0.441 0-0.901 0.058-1.38 0.147zM24.669 30.546h-17.335c-0.404 0-0.784-0.158-1.070-0.444s-0.443-0.666-0.442-1.071l0.004-2.849h20.357v2.851c0 0.834-0.679 1.513-1.513 1.513zM26.632 16.896c-0.038 0.016-0.075 0.034-0.109 0.056-0.092 0.057-0.167 0.132-0.223 0.219s-0.095 0.185-0.111 0.292c-0.006 0.041-0.009 0.081-0.008 0.122v7.143h-20.355l0.009-7.133c0.001-0.040-0.001-0.080-0.007-0.119-0.016-0.11-0.056-0.212-0.115-0.301-0.055-0.083-0.128-0.155-0.216-0.211-0.036-0.023-0.075-0.043-0.114-0.059-2.387-1.044-3.929-3.395-3.929-5.995 0-3.609 2.936-6.545 6.545-6.545 0.107 0 0.218 0.010 0.329 0.019v0c0.036 0.003 0.072 0.006 0.107 0.009-0.736 1.279-1.163 2.757-1.163 4.335 0 0.402 0.325 0.727 0.727 0.727s0.727-0.325 0.727-0.727c0-4.010 3.263-7.273 7.273-7.273s7.273 3.263 7.273 7.273c0 0.402 0.325 0.727 0.727 0.727s0.727-0.325 0.727-0.727c0-1.579-0.428-3.056-1.163-4.335 0.036-0.003 0.071-0.006 0.107-0.009h0c0.111-0.010 0.222-0.019 0.329-0.019 3.609 0 6.545 2.936 6.545 6.545 0 2.591-1.535 4.939-3.913 5.986zM8 14.545c-0.402 0-0.727 0.325-0.727 0.727 0 1.91 2.107 4.532 2.347 4.825 0.144 0.175 0.353 0.266 0.563 0.266 0.162 0 0.325-0.054 0.461-0.165 0.31-0.255 0.355-0.713 0.101-1.024-0.78-0.95-2.017-2.849-2.017-3.902 0-0.402-0.325-0.727-0.727-0.727zM23.273 15.273c0 1.049-1.237 2.95-2.017 3.903-0.254 0.31-0.209 0.768 0.102 1.023 0.135 0.111 0.298 0.165 0.461 0.165 0.21 0 0.418-0.091 0.563-0.266 0.24-0.293 2.347-2.915 2.347-4.825 0-0.402-0.325-0.727-0.727-0.727s-0.727 0.325-0.727 0.727zM16 14.545c0.402 0 0.727 0.325 0.727 0.727v4.364c0 0.402-0.325 0.727-0.727 0.727s-0.727-0.325-0.727-0.727v-4.364c0-0.402 0.325-0.727 0.727-0.727z"></path>
</symbol>
<symbol id="icon-bike" viewBox="0 0 37 32">
<path fill="#5dc4b8" style="fill: var(--color6, #5dc4b8)" d="M32.67 17.97c1.574 0.909 3.013 2.64 3.803 5.786 0.508 2.021-1.027 3.976-3.118 3.976h-1.179c-0.498 2.431-2.662 4.266-5.249 4.266s-4.752-1.835-5.249-4.266h-11.065c-0.503 2.644-2.673 4.269-5.264 4.269-2.9 0-5.349-2.34-5.349-5.336v-2.133c0-3.681 2.691-6.749 6.217-7.356l1.981-6.509h-0.699c-0.592 0-1.071-0.477-1.071-1.067v-4.266c0-0.589 0.48-1.067 1.071-1.067h2.143c1.772 0 3.214 1.435 3.214 3.2v1.067h3.214c0.592 0 1.071 0.477 1.071 1.066s-0.48 1.067-1.071 1.067h-2.146c0.674 0.892 1.074 2 1.074 3.2v11.732h5.029c1.652-1.949 1.558-4.876-0.287-6.712-0.194-0.193-0.314-0.46-0.314-0.754v-2.133c0-1.473 1.006-2.717 2.37-3.087-0.146-0.365-0.227-0.763-0.227-1.179v-8.533c0-1.764 1.442-3.2 3.214-3.2h8.571c1.772 0 3.214 1.435 3.214 3.2v8.533c0 1.764-1.442 3.2-3.214 3.2h-0.184c0.119 0.334 0.184 0.693 0.184 1.067 0 0.743-0.257 1.427-0.685 1.971zM9.642 6.399h-1.071v2.133h2.143v-1.067c0-0.588-0.481-1.066-1.071-1.066zM6.991 29.47c0.96-0.464 1.58-1.565 1.58-2.806 0-1.764-1.442-3.2-3.214-3.2h-0c-1.772 0-3.214 1.436-3.214 3.2 0 2.274 2.369 4.004 4.849 2.806zM10.606 25.598h2.251v-1.066c0-2.941-2.403-5.333-5.357-5.333-2.027 0-3.794 1.126-4.704 2.783 0.761-0.414 1.634-0.65 2.561-0.65h0c2.587 0 4.751 1.835 5.249 4.266zM12.857 19.312v-5.446c0-1.501-1.044-2.764-2.447-3.108l-1.939 6.37c1.708 0.221 3.238 1.016 4.386 2.184zM24.785 2.133c-0.591 0-1.071 0.478-1.071 1.067v1.067h10.714v-1.067c0-0.588-0.481-1.067-1.071-1.067h-8.571zM23.713 6.399v5.333c0 0.588 0.481 1.067 1.071 1.067h8.571c0.591 0 1.071-0.478 1.071-1.067v-5.333h-10.714zM21.57 15.999v1.067h8.571c0.591 0 1.071-0.478 1.071-1.067s-0.481-1.066-1.071-1.066h-7.5c-0.591 0-1.071 0.478-1.071 1.066zM26.927 29.864c1.397 0 2.588-0.906 3.030-2.147h-6.060c0.442 1.241 1.633 2.147 3.030 2.147zM22.581 25.598h10.775c0.698 0 1.208-0.652 1.039-1.325-0.857-3.414-2.594-5.074-5.308-5.074h-6.506c1.015 2.006 1.015 4.394 0 6.399zM5.357 27.731c0.592 0 1.071-0.478 1.071-1.067s-0.48-1.067-1.071-1.067c-0.592 0-1.071 0.478-1.071 1.067s0.48 1.067 1.071 1.067zM26.927 21.332h2.143c0.592 0 1.071 0.478 1.071 1.067s-0.48 1.067-1.071 1.067h-2.143c-0.592 0-1.071-0.478-1.071-1.067s0.48-1.067 1.071-1.067z"></path>
</symbol>
<symbol id="icon-apple" viewBox="0 0 28 32">
<path fill="#ef633e" style="fill: var(--color4, #ef633e)" d="M21.966 7.89c2.743 0.694 4.735 2.659 5.468 5.391 0.616 2.297 0.71 5.088 0.259 7.655-0.505 2.877-1.625 5.592-3.153 7.645-1.641 2.205-3.599 3.419-5.512 3.419-0.769 0-1.505-0.189-2.187-0.561-0.883-0.48-1.871-0.734-2.854-0.734s-1.971 0.254-2.854 0.735c-0.685 0.372-1.421 0.561-2.187 0.561-1.913 0-3.87-1.214-5.512-3.418-1.529-2.053-2.648-4.768-3.153-7.644-0.468-2.664-0.348-5.54 0.328-7.891 0.765-2.659 2.838-4.64 5.544-5.299 2.523-0.614 5.057 0.033 6.613 1.689 0.093 0.099 0.197 0.185 0.31 0.258 0.055-0.764 0.213-1.5 0.458-2.194h-3.281c-3.603 0-6.533-2.943-6.533-6.562 0-0.518 0.418-0.938 0.933-0.938h3.733c3.137 0 5.764 2.232 6.391 5.198 1.536-2.018 3.957-3.323 6.676-3.323 0.516 0 0.933 0.42 0.933 0.938s-0.418 0.938-0.933 0.938c-3.382 0-6.172 2.595-6.501 5.907 0.091-0.064 0.176-0.138 0.253-0.22 1.479-1.574 4.195-2.196 6.759-1.547zM10.254 5.625h2.706c-0.434-2.137-2.319-3.75-4.573-3.75h-2.706c0.434 2.137 2.319 3.75 4.573 3.75zM23.045 27.459c1.357-1.823 2.355-4.254 2.81-6.848 0.399-2.273 0.316-4.831-0.224-6.842-0.755-2.817-2.906-3.753-4.122-4.060-1.899-0.48-3.933-0.063-4.946 1.016-0.665 0.708-1.604 1.114-2.576 1.114h-0.002c-0.971-0-1.91-0.407-2.576-1.115-1.081-1.15-2.971-1.603-4.816-1.154-2.078 0.506-3.606 1.963-4.191 3.997-0.591 2.055-0.697 4.688-0.283 7.045 0.455 2.593 1.453 5.025 2.81 6.847 1.262 1.695 2.726 2.666 4.017 2.666 0.453 0 0.89-0.113 1.299-0.335 1.155-0.628 2.45-0.961 3.743-0.961s2.587 0.332 3.744 0.96c0.408 0.223 0.843 0.335 1.297 0.335 1.291 0 2.755-0.972 4.017-2.666z"></path>
</symbol>
<symbol id="header-icon-menu" viewBox="0 0 32 32">
<path fill="#5dc4b8" style="fill: var(--color6, #5dc4b8)" d="M6.4 11.734V9.6h19.2v2.134H6.4zm0 5.332h19.2v-2.133H6.4v2.133zm0 5.334h19.2v-2.134H6.4V22.4z"/>
</symbol>
<symbol id="header-icon-close" viewBox="0 0 32 32">
<path fill="#5dc4b8" style="fill: var(--color6, #5dc4b8)" d="M23.734 10.304L22.23 8.8l-5.963 5.962L10.305 8.8l-1.504 1.504 5.962 5.962-5.962 5.963 1.504 1.504 5.962-5.963 5.963 5.963 1.504-1.504-5.963-5.963 5.963-5.962z"/>
</symbol>
</defs>
</svg>
