<svg width="48" height="52" fill="none" xmlns="http://www.w3.org/2000/svg"><path fill-rule="evenodd" clip-rule="evenodd" d="M28.393 8.667C29.017 3.719 33.197.008 38.154 0 43.592 0 48 4.435 48 9.905s-4.408 9.905-9.846 9.905a9.704 9.704 0 01-5.594-1.773L20.924 31.092v18.432h7.384V52h-17.23v-2.476h7.384v-18.43L.315 10.731A1.242 1.242 0 010 9.904c0-.684.552-1.238 1.232-1.237h27.161zm-18.94 8.608l10.24 11.488L29.93 17.275H9.453zM32 14.945v-.146H7.246L3.99 11.143h31.406L32 14.945zm2.216 1.237a7.279 7.279 0 003.938 1.151c3.603 0 6.68-2.616 7.28-6.19.68-4.045-2.029-7.88-6.05-8.563-4.022-.684-7.833 2.041-8.512 6.087h7.282c.306-.001.602.112.83.319.504.458.544 1.24.088 1.748l-4.856 5.448z" fill="#EF633E"/></svg>