<svg width="43" height="52" fill="none" xmlns="http://www.w3.org/2000/svg"><path fill-rule="evenodd" clip-rule="evenodd" d="M37.488 16.865c3.04 0 5.512 2.482 5.512 5.532a5.535 5.535 0 01-4.64 5.463 5.534 5.534 0 01-4.004 8.016 5.535 5.535 0 01-3.986 8.034c.4.765.627 1.635.627 2.558 0 3.05-2.473 5.532-5.512 5.532-1.571 0-2.99-.664-3.995-1.726A5.487 5.487 0 0117.496 52c-3.04 0-5.513-2.482-5.513-5.532 0-.923.228-1.793.628-2.559a5.534 5.534 0 01-3.987-8.034 5.534 5.534 0 01-4.002-8.019A5.534 5.534 0 010 22.397c0-3.05 2.473-5.532 5.512-5.532 1.576 0 3 .668 4.005 1.736a5.487 5.487 0 017.998-.01 5.514 5.514 0 012.457-1.505v-3.823a4.823 4.823 0 01-1.784.342 4.796 4.796 0 01-3.408-1.414c-2.768-2.778-4.327-8.827-4.496-9.508L9.674.226l2.45.611c.565.142 4.861 1.256 7.875 3.238C20.246 1.787 22.182 0 24.526 0h7.099v3.047h-7.1c-.836 0-1.517.683-1.517 1.523v12.504a5.513 5.513 0 012.496 1.517 5.487 5.487 0 017.99 0 5.487 5.487 0 013.994-1.726zM19.014 38.45a2.484 2.484 0 002.476 2.485 2.484 2.484 0 002.477-2.485c0-1.37-1.111-2.486-2.477-2.486a2.484 2.484 0 00-2.476 2.486zm-1.518-10.52a2.484 2.484 0 012.476 2.485 2.484 2.484 0 01-2.476 2.486 2.484 2.484 0 01-2.477-2.486c0-1.37 1.111-2.485 2.477-2.485zm5.512 2.485c0 1.37 1.11 2.485 2.477 2.485a2.484 2.484 0 002.476-2.485 2.484 2.484 0 00-2.476-2.485 2.484 2.484 0 00-2.477 2.485zm6.49-10.503a2.484 2.484 0 012.477 2.485 2.484 2.484 0 01-2.476 2.486 2.484 2.484 0 01-2.477-2.486c0-1.37 1.111-2.485 2.477-2.485zm-12.571-9.875a1.782 1.782 0 002.523 0 1.797 1.797 0 000-2.533c-1.178-1.182-3.473-2.2-5.4-2.888.686 1.936 1.702 4.241 2.877 5.42zm4.583 9.875a2.484 2.484 0 012.476 2.485 2.484 2.484 0 01-2.476 2.486 2.484 2.484 0 01-2.477-2.486 2.484 2.484 0 012.477-2.485zm-5.513 2.485a2.484 2.484 0 00-2.476-2.485 2.484 2.484 0 00-2.477 2.485c0 1.37 1.111 2.486 2.477 2.486a2.484 2.484 0 002.476-2.486zm-12.961 0c0-1.37 1.11-2.485 2.476-2.485a2.484 2.484 0 012.477 2.485c0 1.37-1.111 2.486-2.477 2.486a2.484 2.484 0 01-2.476-2.486zm6.47 5.533a2.484 2.484 0 00-2.476 2.485c0 1.37 1.111 2.486 2.477 2.486a2.484 2.484 0 002.476-2.486 2.484 2.484 0 00-2.476-2.485zm1.519 10.52a2.484 2.484 0 012.476-2.486 2.484 2.484 0 012.477 2.486c0 1.37-1.111 2.485-2.477 2.485a2.484 2.484 0 01-2.476-2.485zm3.994 8.018c0 1.37 1.111 2.485 2.477 2.485a2.484 2.484 0 002.476-2.485 2.484 2.484 0 00-2.476-2.486 2.484 2.484 0 00-2.477 2.486zm10.466 2.485a2.484 2.484 0 01-2.477-2.485c0-1.37 1.11-2.486 2.477-2.486a2.484 2.484 0 012.476 2.486 2.484 2.484 0 01-2.476 2.485zm1.517-10.503a2.484 2.484 0 002.477 2.485 2.484 2.484 0 002.476-2.485c0-1.37-1.11-2.486-2.476-2.486a2.484 2.484 0 00-2.477 2.486zm6.471-5.55a2.484 2.484 0 01-2.476-2.485c0-1.37 1.11-2.485 2.476-2.485a2.484 2.484 0 012.477 2.485c0 1.37-1.111 2.485-2.477 2.485zm1.538-10.503c0 1.37 1.111 2.486 2.477 2.486a2.484 2.484 0 002.476-2.486 2.484 2.484 0 00-2.476-2.485 2.484 2.484 0 00-2.477 2.485z" fill="#EF633E"/></svg>