<svg width="52" height="52" fill="none" xmlns="http://www.w3.org/2000/svg"><path fill-rule="evenodd" clip-rule="evenodd" d="M52 22.85c0-.84-.682-1.523-1.523-1.523h-4.629c-.742-9.708-8.515-17.48-18.223-18.22V1.522a1.523 1.523 0 00-3.047 0V3.1c-6.89.463-11.174 4.015-13.599 7.027-2.549 3.168-4.245 7.337-4.608 11.2H1.523c-.84 0-1.523.682-1.523 1.524 0 2.035.837 3.957 2.357 5.41a7.88 7.88 0 005.463 2.207h7.653c-1.345.694-2.831 1.517-4.473 2.474-2.51 1.464-3.372 3.533-4.372 5.929-.68 1.63-1.45 3.476-2.913 5.671-.762 1.144.176 2.154 1.046 2.974 1.112 1.05 3.02 2.59 4.226 3.505l.092.07.072.054.004.003c.646.494 1.116.852 1.713.852.45 0 .832-.203 1.076-.449 1.782-1.781 4.07-2.803 6.279-2.803h6.331c3.02 0 5.91-1.287 7.923-3.526L44.64 31.839c.356-.39.47-.918.348-1.398 3.919-.309 7.013-3.594 7.013-7.59zM26.104 6.096c8.726 0 15.913 6.705 16.685 15.232H9.43c.724-6.638 6.074-15.232 16.675-15.232zm8.507 24.373h-7.053c.116.415.136.796.11 1.117-.154 1.935-1.996 3.486-4.379 4.976h5.228l6.094-6.093zm-2.139 10.23l-2.255 2.48a7.628 7.628 0 01-5.663 2.523h-6.331c-2.619 0-5.286 1.02-7.482 2.831-1.118-.854-2.957-2.352-3.895-3.23C8.1 43.26 8.834 41.496 9.44 40.043c.916-2.196 1.469-3.521 3.096-4.47 2.83-1.65 5.121-2.855 7.005-3.682 3.428-1.504 4.438-1.266 4.555-1.228.382.31.544.564.535.68-.005.056-.086.587-1.514 1.658-1.129.847-2.674 1.722-4.228 2.603-.688.39-1.378.78-2.034 1.17a1.523 1.523 0 00.779 2.833h11.514c.404 0 .792-.16 1.078-.447l7.27-7.27c1.384-1.384 2.531-1.69 3.811-.916l-8.835 9.722zM7.82 27.42h36.563c1.986 0 3.68-1.294 4.309-3.067H3.331c.672 1.755 2.456 3.067 4.49 3.067z" fill="#5DC4B8"/></svg>