<svg width="64" height="64" fill="none" xmlns="http://www.w3.org/2000/svg"><path fill-rule="evenodd" clip-rule="evenodd" d="M45.24 6.112c.957-.177 1.878-.294 2.76-.294 8.822 0 16 7.178 16 16a15.998 15.998 0 01-8.727 14.237v22.01A5.941 5.941 0 0149.338 64h-34.67a5.893 5.893 0 01-4.2-1.742 5.897 5.897 0 01-1.735-4.2l.028-21.981A15.994 15.994 0 010 21.818c0-8.822 7.177-16 16-16 .881 0 1.802.117 2.76.294C21.962 2.378 26.704 0 32 0s10.037 2.378 13.24 6.112zm4.098 54.98a3.03 3.03 0 003.026-3.026v-5.702H11.649l-.007 5.697c-.002.81.314 1.57.885 2.142a3.008 3.008 0 002.14.888h34.67zm3.926-27.3a1.427 1.427 0 00-.663.55 1.435 1.435 0 00-.238.827v14.286h-40.71l.019-14.266a1.457 1.457 0 00-.905-1.38 13.088 13.088 0 01-7.858-11.99c0-7.22 5.872-13.092 13.09-13.092.214 0 .437.02.659.04l.214.017a17.329 17.329 0 00-2.327 8.67 1.454 1.454 0 102.91 0C17.454 9.435 23.98 2.91 32 2.91s14.545 6.526 14.545 14.546a1.454 1.454 0 102.91 0c0-3.157-.856-6.113-2.327-8.67l.214-.019c.222-.02.445-.039.658-.039 7.219 0 13.09 5.873 13.09 13.091 0 5.182-3.07 9.878-7.826 11.973zM16 29.09c.804 0 1.454.65 1.454 1.454 0 2.105 2.475 5.904 4.034 7.804a1.457 1.457 0 01-1.123 2.378c-.42 0-.838-.181-1.126-.53-.48-.588-4.694-5.832-4.694-9.652 0-.804.65-1.454 1.455-1.454zm30.545 1.454a1.454 1.454 0 112.91 0c0 3.82-4.214 9.064-4.694 9.651a1.455 1.455 0 01-2.25-1.845c1.56-1.905 4.034-5.708 4.034-7.805zM32 29.091c-.804 0-1.455.65-1.455 1.454v8.728a1.454 1.454 0 102.91 0v-8.728c0-.804-.651-1.454-1.455-1.454z" fill="#EDA42D"/></svg>