<svg width="56" height="64" fill="none" xmlns="http://www.w3.org/2000/svg"><path fill-rule="evenodd" clip-rule="evenodd" d="M43.971 15.78c-5.133-1.298-10.57-.053-13.53 3.095a3.335 3.335 0 01-.508.439C30.591 12.69 36.176 7.5 42.947 7.5c1.032 0 1.868-.84 1.868-1.875a1.872 1.872 0 00-1.868-1.875c-5.443 0-10.289 2.609-13.364 6.646C28.328 4.463 23.07 0 16.79 0H9.316C8.284 0 7.448.84 7.448 1.875c0 7.237 5.867 13.123 13.079 13.123h6.567a16.807 16.807 0 00-.917 4.39 3.343 3.343 0 01-.62-.516c-3.116-3.312-8.188-4.606-13.238-3.378C6.901 16.81 2.751 20.773 1.22 26.092-.134 30.794-.373 36.546.563 41.874c1.011 5.753 3.252 11.183 6.312 15.29C10.161 61.571 14.08 64 17.908 64a9.083 9.083 0 004.378-1.122A12.009 12.009 0 0128 61.41c1.969 0 3.946.508 5.714 1.468A9.045 9.045 0 0038.092 64c3.83 0 7.747-2.428 11.033-6.837 3.06-4.106 5.301-9.536 6.312-15.29.903-5.136.713-10.716-.52-15.311-1.466-5.465-5.455-9.395-10.946-10.782zm-23.444-4.53c-4.512 0-8.286-3.226-9.154-7.5h5.417c4.511 0 8.286 3.226 9.154 7.5h-5.417zm25.605 43.667c2.716-3.645 4.714-8.509 5.625-13.695.8-4.547.632-9.662-.448-13.685-1.511-5.634-5.818-7.506-8.25-8.12-3.801-.96-7.873-.126-9.901 2.032A7.108 7.108 0 0128 23.678h-.004a7.114 7.114 0 01-5.157-2.231c-2.164-2.3-5.948-3.207-9.64-2.309-4.16 1.012-7.218 3.925-8.39 7.995-1.183 4.11-1.395 9.377-.567 14.09.911 5.186 2.908 10.05 5.625 13.694 2.525 3.39 5.456 5.333 8.04 5.333.907 0 1.782-.225 2.6-.67A15.746 15.746 0 0128 57.66c2.587 0 5.178.663 7.495 1.92a5.36 5.36 0 002.597.67c2.584 0 5.515-1.944 8.04-5.333z" fill="#EF633E"/></svg>