<svg width="44" height="52" fill="none" xmlns="http://www.w3.org/2000/svg"><path fill-rule="evenodd" clip-rule="evenodd" d="M44 26c0-4.025-2.725-7.53-6.523-8.637-.397-4.336-4.083-7.745-8.557-7.745-.39 0-.777.027-1.16.08a6.283 6.283 0 00-4.094-3.536c.419-2.246 1.655-2.953 2.434-3.173a1.522 1.522 0 001.055-1.884 1.538 1.538 0 00-1.9-1.046c-1.81.513-3.192 1.75-3.998 3.576a9.524 9.524 0 00-.686 2.467 6.283 6.283 0 00-4.31 3.551 8.696 8.696 0 00-.778-.035c-4.436 0-8.097 3.35-8.545 7.634a9.075 9.075 0 00-4.527 2.64A8.93 8.93 0 000 26c0 3.615 2.16 6.74 5.268 8.17l3.03 12.707c.72 3.017 3.405 5.123 6.53 5.123h14.343c3.126 0 5.81-2.106 6.53-5.123l3.03-12.707C41.84 32.74 44 29.615 44 26zM22 8.984c1.764 0 3.2 1.424 3.2 3.173 0 1.75-1.436 3.172-3.2 3.172-1.764 0-3.2-1.423-3.2-3.172 0-1.75 1.436-3.173 3.2-3.173zM8.621 34.991l2.668 11.185a3.618 3.618 0 003.54 2.777h.11L11.532 34.67a9.204 9.204 0 01-2.91.322zm14.902 13.962V34.85a9.158 9.158 0 004.87-2.598c.382.391.798.745 1.241 1.06l-3.73 15.642h-2.381zm-5.427 0h2.354v-14.06a9.029 9.029 0 01-4.978-2.498c-.344.34-.714.647-1.104.925l3.728 15.633zm14.615-2.777a3.618 3.618 0 01-3.54 2.777h-.11l3.408-14.288a9.086 9.086 0 002.91.326L32.71 46.176zM29.722 28.98a6.04 6.04 0 005.2 2.976c3.311 0 6.005-2.672 6.005-5.956 0-2.959-2.226-5.494-5.178-5.897a1.527 1.527 0 01-1.324-1.607c.01-.141.014-.255.014-.36 0-3.017-2.476-5.471-5.519-5.471-.226 0-.45.014-.674.04-.28 3.174-2.974 5.671-6.246 5.671-3.283 0-5.983-2.515-6.249-5.703a5.573 5.573 0 00-.268-.008c-3.043 0-5.519 2.454-5.519 5.472 0 .096.004.202.011.324a1.528 1.528 0 01-1.406 1.607 6.006 6.006 0 00-3.902 1.893A5.905 5.905 0 003.073 26c0 3.283 2.694 5.955 6.006 5.955.974 0 1.91-.23 2.744-.654.05-.03.1-.057.153-.081a5.993 5.993 0 002.194-2.063 1.54 1.54 0 011.302-.714c.529 0 1.02.27 1.301.714a5.99 5.99 0 005.092 2.798 6.04 6.04 0 005.199-2.976c.275-.47.781-.76 1.33-.76.547 0 1.054.29 1.328.76z" fill="#EDA42D"/></svg>