<svg width="64" height="56" fill="none" xmlns="http://www.w3.org/2000/svg"><path fill-rule="evenodd" clip-rule="evenodd" d="M57.173 31.447c2.755 1.59 5.274 4.62 6.656 10.125.888 3.536-1.798 6.957-5.457 6.957H56.31c-.871 4.255-4.659 7.466-9.186 7.466s-8.315-3.211-9.186-7.466H18.573C17.693 53.157 13.896 56 9.36 56 4.286 56 0 51.905 0 46.663V42.93c0-6.443 4.708-11.81 10.88-12.874l3.467-11.39h-1.223a1.87 1.87 0 01-1.875-1.867V9.333c0-1.03.84-1.867 1.875-1.867h3.75c3.102 0 5.625 2.512 5.625 5.6v1.866h5.625a1.87 1.87 0 011.875 1.867 1.87 1.87 0 01-1.875 1.866h-3.755a9.257 9.257 0 011.88 5.6V44.796h8.8c2.892-3.411 2.726-8.533-.501-11.745a1.857 1.857 0 01-.55-1.32v-3.733c0-2.579 1.76-4.755 4.148-5.403a5.545 5.545 0 01-.398-2.063V5.6c0-3.088 2.524-5.6 5.625-5.6h15c3.1 0 5.624 2.512 5.624 5.6v14.932c0 3.087-2.523 5.599-5.625 5.599h-.322a5.554 5.554 0 01-.876 5.316zM16.874 11.199H15v3.733h3.75v-1.867c0-1.029-.841-1.866-1.875-1.866zm-4.64 40.374c-4.338 2.097-8.484-.931-8.484-4.91 0-3.088 2.523-5.6 5.624-5.6 3.102 0 5.625 2.512 5.625 5.6 0 2.17-1.085 4.098-2.764 4.91zm6.327-6.777h3.938V42.93c0-5.146-4.205-9.333-9.375-9.333a9.388 9.388 0 00-8.231 4.871 9.347 9.347 0 014.48-1.138h.001c4.528 0 8.315 3.212 9.187 7.466zm3.938-11a13.12 13.12 0 00-7.676-3.823l3.393-11.147c2.456.6 4.283 2.811 4.283 5.439v9.53zM43.373 3.733A1.873 1.873 0 0041.498 5.6v1.866h18.75V5.6c0-1.03-.842-1.867-1.876-1.867h-15zM41.498 11.2h18.75v9.333c0 1.029-.842 1.866-1.876 1.866H43.373a1.873 1.873 0 01-1.875-1.866v-9.333zm-3.75 16.799v1.866h15a1.873 1.873 0 001.874-1.866c0-1.03-.84-1.867-1.874-1.867H39.623a1.873 1.873 0 00-1.875 1.867zm9.375 24.264c-2.444 0-4.528-1.585-5.302-3.758h10.604c-.774 2.173-2.858 3.758-5.302 3.758zm-7.607-7.466h18.856a1.868 1.868 0 001.82-2.319c-1.501-5.975-4.54-8.88-9.29-8.88H39.515a12.433 12.433 0 010 11.2zM9.375 48.53a1.87 1.87 0 001.874-1.867 1.87 1.87 0 00-1.874-1.866A1.87 1.87 0 007.5 46.662c0 1.031.84 1.867 1.875 1.867zM47.123 37.33h3.75a1.87 1.87 0 011.875 1.867 1.87 1.87 0 01-1.875 1.866h-3.75a1.87 1.87 0 01-1.875-1.866c0-1.031.84-1.867 1.875-1.867z" fill="#5DC4B8"/></svg>